<svg width="1440" height="600" viewBox="0 0 1440 600" fill="none" xmlns="http://www.w3.org/2000/svg">
<rect width="1440" height="600" fill="#2E2F42"/>
<path d="M503.283 230.602V237H482.092V230.602H503.283ZM484.772 197.188V237H476.568V197.188H484.772ZM500.522 213.402V219.637H482.092V213.402H500.522ZM503.256 197.188V203.613H482.092V197.188H503.256ZM518.239 237H510.31V204.789C510.31 202.547 510.747 200.66 511.622 199.129C512.515 197.579 513.764 196.413 515.368 195.629C516.991 194.827 518.914 194.426 521.138 194.426C521.867 194.426 522.569 194.48 523.243 194.59C523.918 194.681 524.574 194.799 525.212 194.945L525.13 200.879C524.783 200.788 524.419 200.724 524.036 200.688C523.653 200.651 523.207 200.633 522.696 200.633C521.748 200.633 520.937 200.797 520.263 201.125C519.606 201.435 519.105 201.9 518.759 202.52C518.412 203.139 518.239 203.896 518.239 204.789V237ZM524.145 207.414V212.992H505.907V207.414H524.145ZM539.43 237H531.5V204.789C531.5 202.547 531.937 200.66 532.812 199.129C533.706 197.579 534.954 196.413 536.558 195.629C538.181 194.827 540.104 194.426 542.328 194.426C543.057 194.426 543.759 194.48 544.433 194.59C545.108 194.681 545.764 194.799 546.402 194.945L546.32 200.879C545.974 200.788 545.609 200.724 545.226 200.688C544.844 200.651 544.397 200.633 543.887 200.633C542.939 200.633 542.127 200.797 541.453 201.125C540.797 201.435 540.295 201.9 539.949 202.52C539.603 203.139 539.43 203.896 539.43 204.789V237ZM545.336 207.414V212.992H527.097V207.414H545.336ZM563.546 237.547C561.249 237.547 559.189 237.182 557.366 236.453C555.543 235.706 553.994 234.676 552.717 233.363C551.46 232.051 550.494 230.529 549.819 228.797C549.145 227.047 548.807 225.188 548.807 223.219V222.125C548.807 219.883 549.126 217.832 549.764 215.973C550.402 214.113 551.314 212.5 552.499 211.133C553.702 209.766 555.16 208.717 556.874 207.988C558.587 207.241 560.52 206.867 562.671 206.867C564.767 206.867 566.626 207.214 568.249 207.906C569.871 208.599 571.229 209.583 572.323 210.859C573.435 212.135 574.273 213.667 574.839 215.453C575.404 217.221 575.686 219.19 575.686 221.359V224.641H552.171V219.391H567.948V218.789C567.948 217.695 567.747 216.72 567.346 215.863C566.964 214.988 566.38 214.296 565.596 213.785C564.813 213.275 563.81 213.02 562.589 213.02C561.55 213.02 560.656 213.247 559.909 213.703C559.162 214.159 558.551 214.797 558.077 215.617C557.621 216.438 557.275 217.404 557.038 218.516C556.819 219.609 556.71 220.812 556.71 222.125V223.219C556.71 224.404 556.874 225.497 557.202 226.5C557.548 227.503 558.031 228.368 558.651 229.098C559.289 229.827 560.055 230.392 560.948 230.793C561.859 231.194 562.889 231.395 564.038 231.395C565.46 231.395 566.781 231.121 568.003 230.574C569.242 230.009 570.309 229.161 571.202 228.031L575.03 232.188C574.41 233.081 573.563 233.938 572.487 234.758C571.43 235.578 570.154 236.253 568.659 236.781C567.164 237.292 565.46 237.547 563.546 237.547ZM593.513 231.395C594.479 231.395 595.336 231.212 596.084 230.848C596.831 230.465 597.414 229.936 597.834 229.262C598.271 228.569 598.499 227.758 598.517 226.828H605.927C605.909 228.906 605.353 230.757 604.259 232.379C603.166 233.983 601.698 235.25 599.857 236.18C598.016 237.091 595.956 237.547 593.677 237.547C591.38 237.547 589.375 237.164 587.662 236.398C585.966 235.633 584.554 234.576 583.423 233.227C582.293 231.859 581.446 230.273 580.88 228.469C580.315 226.646 580.033 224.695 580.033 222.617V221.824C580.033 219.728 580.315 217.777 580.88 215.973C581.446 214.15 582.293 212.564 583.423 211.215C584.554 209.848 585.966 208.781 587.662 208.016C589.357 207.25 591.344 206.867 593.623 206.867C596.047 206.867 598.171 207.332 599.994 208.262C601.835 209.191 603.275 210.522 604.314 212.254C605.371 213.967 605.909 216 605.927 218.352H598.517C598.499 217.367 598.289 216.474 597.888 215.672C597.505 214.87 596.94 214.232 596.193 213.758C595.464 213.266 594.561 213.02 593.486 213.02C592.338 213.02 591.399 213.266 590.67 213.758C589.94 214.232 589.375 214.888 588.974 215.727C588.573 216.547 588.291 217.486 588.127 218.543C587.981 219.582 587.908 220.676 587.908 221.824V222.617C587.908 223.766 587.981 224.868 588.127 225.926C588.272 226.983 588.546 227.922 588.947 228.742C589.366 229.562 589.94 230.21 590.67 230.684C591.399 231.158 592.347 231.395 593.513 231.395ZM626.106 207.414V212.992H608.879V207.414H626.106ZM613.145 200.113H621.02V228.086C621.02 228.943 621.129 229.599 621.348 230.055C621.585 230.51 621.931 230.829 622.387 231.012C622.843 231.176 623.417 231.258 624.11 231.258C624.602 231.258 625.04 231.24 625.422 231.203C625.823 231.148 626.161 231.094 626.434 231.039L626.461 236.836C625.787 237.055 625.058 237.228 624.274 237.355C623.49 237.483 622.624 237.547 621.676 237.547C619.944 237.547 618.431 237.264 617.137 236.699C615.861 236.116 614.877 235.186 614.184 233.91C613.491 232.634 613.145 230.957 613.145 228.879V200.113ZM640.023 207.414V237H632.12V207.414H640.023ZM631.628 199.703C631.628 198.555 632.029 197.607 632.831 196.859C633.633 196.112 634.709 195.738 636.058 195.738C637.389 195.738 638.455 196.112 639.257 196.859C640.077 197.607 640.488 198.555 640.488 199.703C640.488 200.852 640.077 201.799 639.257 202.547C638.455 203.294 637.389 203.668 636.058 203.668C634.709 203.668 633.633 203.294 632.831 202.547C632.029 201.799 631.628 200.852 631.628 199.703ZM657.713 231.258L664.276 207.414H672.506L662.526 237H657.549L657.713 231.258ZM653.201 207.414L659.791 231.285L659.928 237H654.924L644.944 207.414H653.201ZM690.388 237.547C688.091 237.547 686.031 237.182 684.208 236.453C682.385 235.706 680.836 234.676 679.56 233.363C678.302 232.051 677.336 230.529 676.661 228.797C675.987 227.047 675.65 225.188 675.65 223.219V222.125C675.65 219.883 675.969 217.832 676.607 215.973C677.245 214.113 678.156 212.5 679.341 211.133C680.544 209.766 682.002 208.717 683.716 207.988C685.429 207.241 687.362 206.867 689.513 206.867C691.609 206.867 693.469 207.214 695.091 207.906C696.713 208.599 698.071 209.583 699.165 210.859C700.277 212.135 701.116 213.667 701.681 215.453C702.246 217.221 702.528 219.19 702.528 221.359V224.641H679.013V219.391H694.79V218.789C694.79 217.695 694.59 216.72 694.189 215.863C693.806 214.988 693.222 214.296 692.439 213.785C691.655 213.275 690.652 213.02 689.431 213.02C688.392 213.02 687.498 213.247 686.751 213.703C686.004 214.159 685.393 214.797 684.919 215.617C684.463 216.438 684.117 217.404 683.88 218.516C683.661 219.609 683.552 220.812 683.552 222.125V223.219C683.552 224.404 683.716 225.497 684.044 226.5C684.39 227.503 684.873 228.368 685.493 229.098C686.131 229.827 686.897 230.392 687.79 230.793C688.702 231.194 689.732 231.395 690.88 231.395C692.302 231.395 693.623 231.121 694.845 230.574C696.084 230.009 697.151 229.161 698.044 228.031L701.872 232.188C701.252 233.081 700.405 233.938 699.329 234.758C698.272 235.578 696.996 236.253 695.501 236.781C694.006 237.292 692.302 237.547 690.388 237.547ZM744.417 226.582C744.417 225.871 744.307 225.233 744.089 224.668C743.888 224.085 743.505 223.556 742.94 223.082C742.375 222.59 741.582 222.107 740.561 221.633C739.541 221.159 738.219 220.667 736.597 220.156C734.792 219.573 733.078 218.917 731.456 218.188C729.852 217.458 728.43 216.611 727.19 215.645C725.969 214.66 725.003 213.521 724.292 212.227C723.599 210.932 723.253 209.428 723.253 207.715C723.253 206.056 723.617 204.552 724.347 203.203C725.076 201.836 726.097 200.669 727.409 199.703C728.722 198.719 730.271 197.962 732.057 197.434C733.862 196.905 735.84 196.641 737.991 196.641C740.926 196.641 743.487 197.169 745.675 198.227C747.862 199.284 749.557 200.733 750.761 202.574C751.982 204.415 752.593 206.521 752.593 208.891H744.444C744.444 207.724 744.198 206.703 743.706 205.828C743.232 204.935 742.503 204.233 741.518 203.723C740.552 203.212 739.331 202.957 737.854 202.957C736.432 202.957 735.248 203.176 734.3 203.613C733.352 204.033 732.641 204.607 732.167 205.336C731.693 206.047 731.456 206.849 731.456 207.742C731.456 208.417 731.62 209.027 731.948 209.574C732.294 210.121 732.805 210.632 733.479 211.105C734.154 211.579 734.983 212.026 735.968 212.445C736.952 212.865 738.091 213.275 739.386 213.676C741.555 214.332 743.46 215.07 745.1 215.891C746.759 216.711 748.145 217.632 749.257 218.652C750.369 219.673 751.207 220.831 751.772 222.125C752.337 223.419 752.62 224.887 752.62 226.527C752.62 228.259 752.283 229.809 751.608 231.176C750.934 232.543 749.959 233.701 748.682 234.648C747.406 235.596 745.884 236.316 744.116 236.809C742.348 237.301 740.37 237.547 738.182 237.547C736.214 237.547 734.272 237.292 732.358 236.781C730.444 236.253 728.703 235.46 727.136 234.402C725.586 233.345 724.347 231.996 723.417 230.355C722.487 228.715 722.022 226.773 722.022 224.531H730.253C730.253 225.771 730.444 226.819 730.827 227.676C731.21 228.533 731.748 229.225 732.44 229.754C733.151 230.283 733.99 230.665 734.956 230.902C735.94 231.139 737.016 231.258 738.182 231.258C739.604 231.258 740.771 231.057 741.682 230.656C742.612 230.255 743.296 229.699 743.733 228.988C744.189 228.277 744.417 227.475 744.417 226.582ZM757.568 222.508V221.934C757.568 219.764 757.878 217.768 758.498 215.945C759.118 214.104 760.02 212.509 761.205 211.16C762.39 209.811 763.848 208.763 765.58 208.016C767.312 207.25 769.299 206.867 771.541 206.867C773.783 206.867 775.779 207.25 777.529 208.016C779.279 208.763 780.747 209.811 781.931 211.16C783.135 212.509 784.046 214.104 784.666 215.945C785.286 217.768 785.595 219.764 785.595 221.934V222.508C785.595 224.659 785.286 226.655 784.666 228.496C784.046 230.319 783.135 231.914 781.931 233.281C780.747 234.63 779.288 235.678 777.556 236.426C775.825 237.173 773.838 237.547 771.595 237.547C769.353 237.547 767.357 237.173 765.607 236.426C763.875 235.678 762.408 234.63 761.205 233.281C760.02 231.914 759.118 230.319 758.498 228.496C757.878 226.655 757.568 224.659 757.568 222.508ZM765.443 221.934V222.508C765.443 223.747 765.552 224.905 765.771 225.98C765.99 227.056 766.336 228.004 766.81 228.824C767.302 229.626 767.941 230.255 768.724 230.711C769.508 231.167 770.465 231.395 771.595 231.395C772.689 231.395 773.628 231.167 774.412 230.711C775.196 230.255 775.825 229.626 776.299 228.824C776.773 228.004 777.119 227.056 777.338 225.98C777.575 224.905 777.693 223.747 777.693 222.508V221.934C777.693 220.73 777.575 219.6 777.338 218.543C777.119 217.467 776.763 216.52 776.271 215.699C775.797 214.861 775.168 214.204 774.385 213.73C773.601 213.257 772.653 213.02 771.541 213.02C770.429 213.02 769.481 213.257 768.697 213.73C767.931 214.204 767.302 214.861 766.81 215.699C766.336 216.52 765.99 217.467 765.771 218.543C765.552 219.6 765.443 220.73 765.443 221.934ZM799.868 195V237H791.965V195H799.868ZM824.996 229.918V207.414H832.871V237H825.46L824.996 229.918ZM825.871 223.848L828.195 223.793C828.195 225.762 827.967 227.594 827.511 229.289C827.056 230.966 826.372 232.424 825.46 233.664C824.549 234.885 823.401 235.842 822.015 236.535C820.63 237.21 818.998 237.547 817.121 237.547C815.681 237.547 814.35 237.346 813.128 236.945C811.925 236.526 810.886 235.879 810.011 235.004C809.154 234.111 808.48 232.971 807.988 231.586C807.514 230.182 807.277 228.496 807.277 226.527V207.414H815.152V226.582C815.152 227.457 815.252 228.195 815.453 228.797C815.671 229.398 815.972 229.891 816.355 230.273C816.738 230.656 817.184 230.93 817.695 231.094C818.223 231.258 818.807 231.34 819.445 231.34C821.067 231.34 822.343 231.012 823.273 230.355C824.221 229.699 824.886 228.806 825.269 227.676C825.67 226.527 825.871 225.251 825.871 223.848ZM854.498 207.414V212.992H837.272V207.414H854.498ZM841.537 200.113H849.412V228.086C849.412 228.943 849.522 229.599 849.741 230.055C849.978 230.51 850.324 230.829 850.78 231.012C851.235 231.176 851.81 231.258 852.502 231.258C852.995 231.258 853.432 231.24 853.815 231.203C854.216 231.148 854.553 231.094 854.827 231.039L854.854 236.836C854.179 237.055 853.45 237.228 852.666 237.355C851.883 237.483 851.017 237.547 850.069 237.547C848.337 237.547 846.824 237.264 845.53 236.699C844.254 236.116 843.269 235.186 842.577 233.91C841.884 232.634 841.537 230.957 841.537 228.879V200.113ZM868.415 207.414V237H860.513V207.414H868.415ZM860.021 199.703C860.021 198.555 860.422 197.607 861.224 196.859C862.026 196.112 863.101 195.738 864.45 195.738C865.781 195.738 866.848 196.112 867.65 196.859C868.47 197.607 868.88 198.555 868.88 199.703C868.88 200.852 868.47 201.799 867.65 202.547C866.848 203.294 865.781 203.668 864.45 203.668C863.101 203.668 862.026 203.294 861.224 202.547C860.422 201.799 860.021 200.852 860.021 199.703ZM874.785 222.508V221.934C874.785 219.764 875.095 217.768 875.715 215.945C876.335 214.104 877.237 212.509 878.422 211.16C879.607 209.811 881.065 208.763 882.797 208.016C884.529 207.25 886.516 206.867 888.758 206.867C891 206.867 892.996 207.25 894.746 208.016C896.496 208.763 897.964 209.811 899.149 211.16C900.352 212.509 901.263 214.104 901.883 215.945C902.503 217.768 902.813 219.764 902.813 221.934V222.508C902.813 224.659 902.503 226.655 901.883 228.496C901.263 230.319 900.352 231.914 899.149 233.281C897.964 234.63 896.505 235.678 894.774 236.426C893.042 237.173 891.055 237.547 888.813 237.547C886.57 237.547 884.574 237.173 882.824 236.426C881.093 235.678 879.625 234.63 878.422 233.281C877.237 231.914 876.335 230.319 875.715 228.496C875.095 226.655 874.785 224.659 874.785 222.508ZM882.66 221.934V222.508C882.66 223.747 882.77 224.905 882.988 225.98C883.207 227.056 883.554 228.004 884.028 228.824C884.52 229.626 885.158 230.255 885.942 230.711C886.725 231.167 887.682 231.395 888.813 231.395C889.906 231.395 890.845 231.167 891.629 230.711C892.413 230.255 893.042 229.626 893.516 228.824C893.99 228.004 894.336 227.056 894.555 225.98C894.792 224.905 894.91 223.747 894.91 222.508V221.934C894.91 220.73 894.792 219.6 894.555 218.543C894.336 217.467 893.981 216.52 893.488 215.699C893.015 214.861 892.386 214.204 891.602 213.73C890.818 213.257 889.87 213.02 888.758 213.02C887.646 213.02 886.698 213.257 885.914 213.73C885.149 214.204 884.52 214.861 884.028 215.699C883.554 216.52 883.207 217.467 882.988 218.543C882.77 219.6 882.66 220.73 882.66 221.934ZM916.483 213.73V237H908.608V207.414H915.991L916.483 213.73ZM915.335 221.168H913.202C913.202 218.98 913.485 217.012 914.05 215.262C914.615 213.493 915.408 211.99 916.429 210.75C917.45 209.492 918.662 208.535 920.065 207.879C921.487 207.204 923.073 206.867 924.823 206.867C926.209 206.867 927.476 207.068 928.624 207.469C929.773 207.87 930.757 208.508 931.577 209.383C932.416 210.258 933.054 211.415 933.491 212.855C933.947 214.296 934.175 216.055 934.175 218.133V237H926.245V218.105C926.245 216.793 926.063 215.772 925.698 215.043C925.334 214.314 924.796 213.803 924.085 213.512C923.392 213.202 922.536 213.047 921.515 213.047C920.457 213.047 919.537 213.257 918.753 213.676C917.987 214.095 917.349 214.678 916.839 215.426C916.347 216.155 915.973 217.012 915.718 217.996C915.463 218.98 915.335 220.038 915.335 221.168ZM957.279 228.824C957.279 228.259 957.115 227.749 956.787 227.293C956.459 226.837 955.848 226.418 954.955 226.035C954.08 225.634 952.813 225.27 951.154 224.941C949.659 224.613 948.265 224.203 946.971 223.711C945.695 223.201 944.583 222.59 943.635 221.879C942.705 221.168 941.976 220.329 941.447 219.363C940.919 218.379 940.654 217.258 940.654 216C940.654 214.76 940.919 213.594 941.447 212.5C941.994 211.406 942.769 210.44 943.771 209.602C944.792 208.745 946.032 208.079 947.49 207.605C948.967 207.113 950.626 206.867 952.467 206.867C955.037 206.867 957.243 207.277 959.084 208.098C960.943 208.918 962.365 210.048 963.35 211.488C964.352 212.91 964.853 214.533 964.853 216.355H956.978C956.978 215.59 956.814 214.906 956.486 214.305C956.176 213.685 955.684 213.202 955.01 212.855C954.353 212.491 953.497 212.309 952.439 212.309C951.564 212.309 950.808 212.464 950.17 212.773C949.532 213.065 949.04 213.466 948.693 213.977C948.365 214.469 948.201 215.016 948.201 215.617C948.201 216.073 948.292 216.483 948.475 216.848C948.675 217.194 948.994 217.513 949.432 217.805C949.869 218.096 950.434 218.37 951.127 218.625C951.838 218.862 952.713 219.081 953.752 219.281C955.885 219.719 957.79 220.293 959.467 221.004C961.144 221.697 962.475 222.645 963.459 223.848C964.443 225.033 964.935 226.591 964.935 228.523C964.935 229.836 964.644 231.039 964.06 232.133C963.477 233.227 962.639 234.184 961.545 235.004C960.451 235.806 959.139 236.435 957.607 236.891C956.094 237.328 954.39 237.547 952.494 237.547C949.741 237.547 947.408 237.055 945.494 236.07C943.598 235.086 942.158 233.837 941.174 232.324C940.208 230.793 939.725 229.225 939.725 227.621H947.189C947.226 228.697 947.499 229.562 948.01 230.219C948.538 230.875 949.204 231.349 950.006 231.641C950.826 231.932 951.71 232.078 952.658 232.078C953.679 232.078 954.527 231.941 955.201 231.668C955.876 231.376 956.386 230.993 956.732 230.52C957.097 230.027 957.279 229.462 957.279 228.824ZM500.958 297H493.028V264.789C493.028 262.547 493.466 260.66 494.341 259.129C495.234 257.579 496.483 256.413 498.087 255.629C499.709 254.827 501.632 254.426 503.856 254.426C504.586 254.426 505.287 254.48 505.962 254.59C506.636 254.681 507.293 254.799 507.931 254.945L507.849 260.879C507.502 260.788 507.138 260.724 506.755 260.688C506.372 260.651 505.925 260.633 505.415 260.633C504.467 260.633 503.656 260.797 502.981 261.125C502.325 261.435 501.824 261.9 501.477 262.52C501.131 263.139 500.958 263.896 500.958 264.789V297ZM506.864 267.414V272.992H488.626V267.414H506.864ZM510.855 282.508V281.934C510.855 279.764 511.165 277.768 511.785 275.945C512.405 274.104 513.307 272.509 514.492 271.16C515.677 269.811 517.135 268.763 518.867 268.016C520.599 267.25 522.586 266.867 524.828 266.867C527.07 266.867 529.066 267.25 530.816 268.016C532.566 268.763 534.034 269.811 535.219 271.16C536.422 272.509 537.333 274.104 537.953 275.945C538.573 277.768 538.883 279.764 538.883 281.934V282.508C538.883 284.659 538.573 286.655 537.953 288.496C537.333 290.319 536.422 291.914 535.219 293.281C534.034 294.63 532.575 295.678 530.844 296.426C529.112 297.173 527.125 297.547 524.883 297.547C522.64 297.547 520.644 297.173 518.894 296.426C517.163 295.678 515.695 294.63 514.492 293.281C513.307 291.914 512.405 290.319 511.785 288.496C511.165 286.655 510.855 284.659 510.855 282.508ZM518.73 281.934V282.508C518.73 283.747 518.84 284.905 519.058 285.98C519.277 287.056 519.624 288.004 520.097 288.824C520.59 289.626 521.228 290.255 522.012 290.711C522.795 291.167 523.752 291.395 524.883 291.395C525.976 291.395 526.915 291.167 527.699 290.711C528.483 290.255 529.112 289.626 529.586 288.824C530.06 288.004 530.406 287.056 530.625 285.98C530.862 284.905 530.98 283.747 530.98 282.508V281.934C530.98 280.73 530.862 279.6 530.625 278.543C530.406 277.467 530.051 276.52 529.558 275.699C529.084 274.861 528.456 274.204 527.672 273.73C526.888 273.257 525.94 273.02 524.828 273.02C523.716 273.02 522.768 273.257 521.984 273.73C521.219 274.204 520.59 274.861 520.097 275.699C519.624 276.52 519.277 277.467 519.058 278.543C518.84 279.6 518.73 280.73 518.73 281.934ZM552.717 273.867V297H544.842V267.414H552.253L552.717 273.867ZM561.632 267.223L561.495 274.523C561.112 274.469 560.647 274.423 560.1 274.387C559.572 274.332 559.089 274.305 558.651 274.305C557.539 274.305 556.573 274.451 555.753 274.742C554.951 275.016 554.276 275.426 553.729 275.973C553.201 276.52 552.8 277.185 552.526 277.969C552.271 278.753 552.125 279.646 552.089 280.648L550.503 280.156C550.503 278.242 550.694 276.483 551.077 274.879C551.46 273.257 552.016 271.844 552.745 270.641C553.492 269.438 554.404 268.508 555.479 267.852C556.555 267.195 557.785 266.867 559.171 266.867C559.608 266.867 560.055 266.904 560.51 266.977C560.966 267.031 561.34 267.113 561.632 267.223ZM587.497 257.188L595.809 275.344L604.122 257.188H613.063L599.965 282.508V297H591.653V282.508L578.528 257.188H587.497ZM614.265 282.508V281.934C614.265 279.764 614.575 277.768 615.195 275.945C615.814 274.104 616.717 272.509 617.902 271.16C619.087 269.811 620.545 268.763 622.277 268.016C624.008 267.25 625.995 266.867 628.238 266.867C630.48 266.867 632.476 267.25 634.226 268.016C635.976 268.763 637.443 269.811 638.628 271.16C639.831 272.509 640.743 274.104 641.363 275.945C641.982 277.768 642.292 279.764 642.292 281.934V282.508C642.292 284.659 641.982 286.655 641.363 288.496C640.743 290.319 639.831 291.914 638.628 293.281C637.443 294.63 635.985 295.678 634.253 296.426C632.521 297.173 630.535 297.547 628.292 297.547C626.05 297.547 624.054 297.173 622.304 296.426C620.572 295.678 619.105 294.63 617.902 293.281C616.717 291.914 615.814 290.319 615.195 288.496C614.575 286.655 614.265 284.659 614.265 282.508ZM622.14 281.934V282.508C622.14 283.747 622.249 284.905 622.468 285.98C622.687 287.056 623.033 288.004 623.507 288.824C623.999 289.626 624.637 290.255 625.421 290.711C626.205 291.167 627.162 291.395 628.292 291.395C629.386 291.395 630.325 291.167 631.109 290.711C631.893 290.255 632.521 289.626 632.995 288.824C633.469 288.004 633.816 287.056 634.035 285.98C634.271 284.905 634.39 283.747 634.39 282.508V281.934C634.39 280.73 634.271 279.6 634.035 278.543C633.816 277.467 633.46 276.52 632.968 275.699C632.494 274.861 631.865 274.204 631.081 273.73C630.298 273.257 629.35 273.02 628.238 273.02C627.126 273.02 626.178 273.257 625.394 273.73C624.628 274.204 623.999 274.861 623.507 275.699C623.033 276.52 622.687 277.467 622.468 278.543C622.249 279.6 622.14 280.73 622.14 281.934ZM665.752 289.918V267.414H673.627V297H666.217L665.752 289.918ZM666.627 283.848L668.951 283.793C668.951 285.762 668.724 287.594 668.268 289.289C667.812 290.966 667.128 292.424 666.217 293.664C665.306 294.885 664.157 295.842 662.772 296.535C661.386 297.21 659.755 297.547 657.877 297.547C656.437 297.547 655.106 297.346 653.885 296.945C652.682 296.526 651.643 295.879 650.768 295.004C649.911 294.111 649.237 292.971 648.744 291.586C648.27 290.182 648.033 288.496 648.033 286.527V267.414H655.908V286.582C655.908 287.457 656.009 288.195 656.209 288.797C656.428 289.398 656.729 289.891 657.112 290.273C657.494 290.656 657.941 290.93 658.451 291.094C658.98 291.258 659.563 291.34 660.201 291.34C661.824 291.34 663.1 291.012 664.03 290.355C664.977 289.699 665.643 288.806 666.026 287.676C666.427 286.527 666.627 285.251 666.627 283.848ZM688.638 273.867V297H680.763V267.414H688.173L688.638 273.867ZM697.552 267.223L697.415 274.523C697.032 274.469 696.567 274.423 696.021 274.387C695.492 274.332 695.009 274.305 694.571 274.305C693.459 274.305 692.493 274.451 691.673 274.742C690.871 275.016 690.196 275.426 689.65 275.973C689.121 276.52 688.72 277.185 688.446 277.969C688.191 278.753 688.045 279.646 688.009 280.648L686.423 280.156C686.423 278.242 686.614 276.483 686.997 274.879C687.38 273.257 687.936 271.844 688.665 270.641C689.413 269.438 690.324 268.508 691.4 267.852C692.475 267.195 693.706 266.867 695.091 266.867C695.528 266.867 695.975 266.904 696.431 266.977C696.887 267.031 697.26 267.113 697.552 267.223ZM733.534 279.527H723.307L723.253 273.895H731.839C733.352 273.895 734.591 273.703 735.557 273.32C736.524 272.919 737.244 272.345 737.718 271.598C738.21 270.832 738.456 269.902 738.456 268.809C738.456 267.569 738.219 266.566 737.745 265.801C737.289 265.035 736.569 264.479 735.585 264.133C734.619 263.786 733.37 263.613 731.839 263.613H726.151V297H717.948V257.188H731.839C734.154 257.188 736.223 257.406 738.046 257.844C739.887 258.281 741.446 258.947 742.722 259.84C743.998 260.733 744.973 261.863 745.647 263.23C746.322 264.579 746.659 266.184 746.659 268.043C746.659 269.684 746.285 271.197 745.538 272.582C744.809 273.967 743.651 275.098 742.065 275.973C740.498 276.848 738.447 277.331 735.913 277.422L733.534 279.527ZM733.179 297H721.065L724.265 290.602H733.179C734.619 290.602 735.794 290.374 736.706 289.918C737.617 289.444 738.292 288.806 738.729 288.004C739.167 287.202 739.386 286.281 739.386 285.242C739.386 284.076 739.185 283.064 738.784 282.207C738.401 281.35 737.781 280.694 736.925 280.238C736.068 279.764 734.938 279.527 733.534 279.527H725.632L725.686 273.895H735.53L737.417 276.109C739.841 276.073 741.792 276.501 743.268 277.395C744.763 278.27 745.848 279.409 746.522 280.812C747.215 282.216 747.561 283.72 747.561 285.324C747.561 287.876 747.005 290.027 745.893 291.777C744.781 293.509 743.15 294.812 740.999 295.688C738.866 296.562 736.259 297 733.179 297ZM771.842 289.918V267.414H779.717V297H772.306L771.842 289.918ZM772.717 283.848L775.041 283.793C775.041 285.762 774.813 287.594 774.357 289.289C773.901 290.966 773.218 292.424 772.306 293.664C771.395 294.885 770.247 295.842 768.861 296.535C767.476 297.21 765.844 297.547 763.967 297.547C762.526 297.547 761.196 297.346 759.974 296.945C758.771 296.526 757.732 295.879 756.857 295.004C756 294.111 755.326 292.971 754.834 291.586C754.36 290.182 754.123 288.496 754.123 286.527V267.414H761.998V286.582C761.998 287.457 762.098 288.195 762.299 288.797C762.517 289.398 762.818 289.891 763.201 290.273C763.584 290.656 764.03 290.93 764.541 291.094C765.069 291.258 765.653 291.34 766.291 291.34C767.913 291.34 769.189 291.012 770.119 290.355C771.067 289.699 771.732 288.806 772.115 287.676C772.516 286.527 772.717 285.251 772.717 283.848ZM802.848 288.824C802.848 288.259 802.684 287.749 802.356 287.293C802.028 286.837 801.417 286.418 800.524 286.035C799.649 285.634 798.382 285.27 796.723 284.941C795.228 284.613 793.834 284.203 792.54 283.711C791.264 283.201 790.152 282.59 789.204 281.879C788.274 281.168 787.545 280.329 787.016 279.363C786.488 278.379 786.223 277.258 786.223 276C786.223 274.76 786.488 273.594 787.016 272.5C787.563 271.406 788.338 270.44 789.34 269.602C790.361 268.745 791.601 268.079 793.059 267.605C794.536 267.113 796.195 266.867 798.036 266.867C800.606 266.867 802.812 267.277 804.653 268.098C806.512 268.918 807.934 270.048 808.919 271.488C809.921 272.91 810.422 274.533 810.422 276.355H802.547C802.547 275.59 802.383 274.906 802.055 274.305C801.745 273.685 801.253 273.202 800.579 272.855C799.922 272.491 799.066 272.309 798.008 272.309C797.133 272.309 796.377 272.464 795.739 272.773C795.101 273.065 794.609 273.466 794.262 273.977C793.934 274.469 793.77 275.016 793.77 275.617C793.77 276.073 793.861 276.483 794.044 276.848C794.244 277.194 794.563 277.513 795.001 277.805C795.438 278.096 796.003 278.37 796.696 278.625C797.407 278.862 798.282 279.081 799.321 279.281C801.454 279.719 803.359 280.293 805.036 281.004C806.713 281.697 808.044 282.645 809.028 283.848C810.012 285.033 810.505 286.591 810.505 288.523C810.505 289.836 810.213 291.039 809.63 292.133C809.046 293.227 808.208 294.184 807.114 295.004C806.02 295.806 804.708 296.435 803.176 296.891C801.663 297.328 799.959 297.547 798.063 297.547C795.311 297.547 792.977 297.055 791.063 296.07C789.167 295.086 787.727 293.837 786.743 292.324C785.777 290.793 785.294 289.225 785.294 287.621H792.758C792.795 288.697 793.068 289.562 793.579 290.219C794.107 290.875 794.773 291.349 795.575 291.641C796.395 291.932 797.279 292.078 798.227 292.078C799.248 292.078 800.096 291.941 800.77 291.668C801.445 291.376 801.955 290.993 802.301 290.52C802.666 290.027 802.848 289.462 802.848 288.824ZM825.05 267.414V297H817.148V267.414H825.05ZM816.656 259.703C816.656 258.555 817.057 257.607 817.859 256.859C818.661 256.112 819.736 255.738 821.085 255.738C822.416 255.738 823.483 256.112 824.285 256.859C825.105 257.607 825.515 258.555 825.515 259.703C825.515 260.852 825.105 261.799 824.285 262.547C823.483 263.294 822.416 263.668 821.085 263.668C819.736 263.668 818.661 263.294 817.859 262.547C817.057 261.799 816.656 260.852 816.656 259.703ZM840.389 273.73V297H832.514V267.414H839.897L840.389 273.73ZM839.241 281.168H837.108C837.108 278.98 837.39 277.012 837.955 275.262C838.521 273.493 839.314 271.99 840.334 270.75C841.355 269.492 842.567 268.535 843.971 267.879C845.393 267.204 846.979 266.867 848.729 266.867C850.114 266.867 851.381 267.068 852.53 267.469C853.678 267.87 854.662 268.508 855.483 269.383C856.321 270.258 856.959 271.415 857.397 272.855C857.853 274.296 858.08 276.055 858.08 278.133V297H850.151V278.105C850.151 276.793 849.968 275.772 849.604 275.043C849.239 274.314 848.702 273.803 847.991 273.512C847.298 273.202 846.441 273.047 845.42 273.047C844.363 273.047 843.442 273.257 842.659 273.676C841.893 274.095 841.255 274.678 840.745 275.426C840.252 276.155 839.879 277.012 839.623 277.996C839.368 278.98 839.241 280.038 839.241 281.168ZM878.806 297.547C876.509 297.547 874.449 297.182 872.626 296.453C870.803 295.706 869.254 294.676 867.978 293.363C866.72 292.051 865.754 290.529 865.079 288.797C864.405 287.047 864.068 285.188 864.068 283.219V282.125C864.068 279.883 864.387 277.832 865.025 275.973C865.663 274.113 866.574 272.5 867.759 271.133C868.962 269.766 870.42 268.717 872.134 267.988C873.848 267.241 875.78 266.867 877.931 266.867C880.027 266.867 881.887 267.214 883.509 267.906C885.131 268.599 886.49 269.583 887.583 270.859C888.695 272.135 889.534 273.667 890.099 275.453C890.664 277.221 890.947 279.19 890.947 281.359V284.641H867.431V279.391H883.208V278.789C883.208 277.695 883.008 276.72 882.607 275.863C882.224 274.988 881.641 274.296 880.857 273.785C880.073 273.275 879.07 273.02 877.849 273.02C876.81 273.02 875.917 273.247 875.169 273.703C874.422 274.159 873.811 274.797 873.337 275.617C872.881 276.438 872.535 277.404 872.298 278.516C872.079 279.609 871.97 280.812 871.97 282.125V283.219C871.97 284.404 872.134 285.497 872.462 286.5C872.809 287.503 873.292 288.368 873.911 289.098C874.549 289.827 875.315 290.392 876.208 290.793C877.12 291.194 878.15 291.395 879.298 291.395C880.72 291.395 882.042 291.121 883.263 290.574C884.503 290.009 885.569 289.161 886.462 288.031L890.29 292.188C889.67 293.081 888.823 293.938 887.747 294.758C886.69 295.578 885.414 296.253 883.919 296.781C882.424 297.292 880.72 297.547 878.806 297.547ZM912.547 288.824C912.547 288.259 912.383 287.749 912.055 287.293C911.727 286.837 911.116 286.418 910.223 286.035C909.348 285.634 908.081 285.27 906.422 284.941C904.927 284.613 903.533 284.203 902.238 283.711C900.962 283.201 899.85 282.59 898.902 281.879C897.973 281.168 897.244 280.329 896.715 279.363C896.186 278.379 895.922 277.258 895.922 276C895.922 274.76 896.186 273.594 896.715 272.5C897.262 271.406 898.037 270.44 899.039 269.602C900.06 268.745 901.3 268.079 902.758 267.605C904.234 267.113 905.893 266.867 907.734 266.867C910.305 266.867 912.511 267.277 914.352 268.098C916.211 268.918 917.633 270.048 918.617 271.488C919.62 272.91 920.121 274.533 920.121 276.355H912.246C912.246 275.59 912.082 274.906 911.754 274.305C911.444 273.685 910.952 273.202 910.277 272.855C909.621 272.491 908.764 272.309 907.707 272.309C906.832 272.309 906.076 272.464 905.438 272.773C904.8 273.065 904.307 273.466 903.961 273.977C903.633 274.469 903.469 275.016 903.469 275.617C903.469 276.073 903.56 276.483 903.742 276.848C903.943 277.194 904.262 277.513 904.699 277.805C905.137 278.096 905.702 278.37 906.395 278.625C907.106 278.862 907.981 279.081 909.02 279.281C911.152 279.719 913.057 280.293 914.734 281.004C916.412 281.697 917.742 282.645 918.727 283.848C919.711 285.033 920.203 286.591 920.203 288.523C920.203 289.836 919.912 291.039 919.328 292.133C918.745 293.227 917.906 294.184 916.813 295.004C915.719 295.806 914.406 296.435 912.875 296.891C911.362 297.328 909.658 297.547 907.762 297.547C905.009 297.547 902.676 297.055 900.762 296.07C898.866 295.086 897.426 293.837 896.442 292.324C895.475 290.793 894.992 289.225 894.992 287.621H902.457C902.494 288.697 902.767 289.562 903.277 290.219C903.806 290.875 904.471 291.349 905.274 291.641C906.094 291.932 906.978 292.078 907.926 292.078C908.947 292.078 909.794 291.941 910.469 291.668C911.143 291.376 911.654 290.993 912 290.52C912.365 290.027 912.547 289.462 912.547 288.824ZM942.433 288.824C942.433 288.259 942.269 287.749 941.94 287.293C941.612 286.837 941.002 286.418 940.108 286.035C939.233 285.634 937.967 285.27 936.308 284.941C934.813 284.613 933.418 284.203 932.124 283.711C930.848 283.201 929.736 282.59 928.788 281.879C927.858 281.168 927.129 280.329 926.601 279.363C926.072 278.379 925.808 277.258 925.808 276C925.808 274.76 926.072 273.594 926.601 272.5C927.148 271.406 927.922 270.44 928.925 269.602C929.946 268.745 931.185 268.079 932.644 267.605C934.12 267.113 935.779 266.867 937.62 266.867C940.19 266.867 942.396 267.277 944.237 268.098C946.097 268.918 947.519 270.048 948.503 271.488C949.506 272.91 950.007 274.533 950.007 276.355H942.132C942.132 275.59 941.968 274.906 941.64 274.305C941.33 273.685 940.838 273.202 940.163 272.855C939.507 272.491 938.65 272.309 937.593 272.309C936.718 272.309 935.961 272.464 935.323 272.773C934.685 273.065 934.193 273.466 933.847 273.977C933.519 274.469 933.355 275.016 933.355 275.617C933.355 276.073 933.446 276.483 933.628 276.848C933.829 277.194 934.148 277.513 934.585 277.805C935.023 278.096 935.588 278.37 936.28 278.625C936.991 278.862 937.866 279.081 938.905 279.281C941.038 279.719 942.943 280.293 944.62 281.004C946.297 281.697 947.628 282.645 948.612 283.848C949.597 285.033 950.089 286.591 950.089 288.523C950.089 289.836 949.797 291.039 949.214 292.133C948.631 293.227 947.792 294.184 946.698 295.004C945.605 295.806 944.292 296.435 942.761 296.891C941.248 297.328 939.543 297.547 937.648 297.547C934.895 297.547 932.562 297.055 930.648 296.07C928.752 295.086 927.312 293.837 926.327 292.324C925.361 290.793 924.878 289.225 924.878 287.621H932.343C932.379 288.697 932.653 289.562 933.163 290.219C933.692 290.875 934.357 291.349 935.159 291.641C935.98 291.932 936.864 292.078 937.812 292.078C938.832 292.078 939.68 291.941 940.355 291.668C941.029 291.376 941.539 290.993 941.886 290.52C942.25 290.027 942.433 289.462 942.433 288.824Z" fill="white"/>
<g filter="url(#filter0_d_296605_13)">
<rect x="635.5" y="356" width="169" height="56" rx="4" fill="#4D5AE5" shape-rendering="crispEdges"/>
<path d="M677.727 383V383.625C677.727 384.484 677.615 385.255 677.391 385.938C677.167 386.62 676.846 387.201 676.43 387.68C676.018 388.159 675.523 388.526 674.945 388.781C674.367 389.031 673.727 389.156 673.023 389.156C672.326 389.156 671.688 389.031 671.109 388.781C670.536 388.526 670.039 388.159 669.617 387.68C669.195 387.201 668.867 386.62 668.633 385.938C668.404 385.255 668.289 384.484 668.289 383.625V383C668.289 382.141 668.404 381.372 668.633 380.695C668.862 380.013 669.185 379.432 669.602 378.953C670.023 378.469 670.521 378.102 671.094 377.852C671.672 377.596 672.31 377.469 673.008 377.469C673.711 377.469 674.352 377.596 674.93 377.852C675.508 378.102 676.005 378.469 676.422 378.953C676.839 379.432 677.159 380.013 677.383 380.695C677.612 381.372 677.727 382.141 677.727 383ZM675.766 383.625V382.984C675.766 382.349 675.703 381.789 675.578 381.305C675.458 380.815 675.279 380.406 675.039 380.078C674.805 379.745 674.516 379.495 674.172 379.328C673.828 379.156 673.44 379.07 673.008 379.07C672.576 379.07 672.19 379.156 671.852 379.328C671.513 379.495 671.224 379.745 670.984 380.078C670.75 380.406 670.57 380.815 670.445 381.305C670.32 381.789 670.258 382.349 670.258 382.984V383.625C670.258 384.26 670.32 384.823 670.445 385.312C670.57 385.802 670.753 386.216 670.992 386.555C671.237 386.888 671.529 387.141 671.867 387.312C672.206 387.479 672.591 387.562 673.023 387.562C673.461 387.562 673.849 387.479 674.188 387.312C674.526 387.141 674.812 386.888 675.047 386.555C675.281 386.216 675.458 385.802 675.578 385.312C675.703 384.823 675.766 384.26 675.766 383.625ZM682.031 382.156V389H680.148V380.547H681.945L682.031 382.156ZM684.617 380.492L684.601 382.242C684.486 382.221 684.361 382.206 684.226 382.195C684.096 382.185 683.966 382.18 683.835 382.18C683.512 382.18 683.229 382.227 682.984 382.32C682.739 382.409 682.533 382.539 682.367 382.711C682.205 382.878 682.08 383.081 681.992 383.32C681.903 383.56 681.851 383.828 681.835 384.125L681.406 384.156C681.406 383.625 681.458 383.133 681.562 382.68C681.666 382.227 681.822 381.828 682.031 381.484C682.244 381.141 682.51 380.872 682.828 380.68C683.15 380.487 683.523 380.391 683.945 380.391C684.059 380.391 684.182 380.401 684.312 380.422C684.447 380.443 684.549 380.466 684.617 380.492ZM691.436 387.25V377H693.327V389H691.616L691.436 387.25ZM685.936 384.867V384.703C685.936 384.062 686.012 383.479 686.163 382.953C686.314 382.422 686.533 381.966 686.819 381.586C687.106 381.201 687.454 380.906 687.866 380.703C688.277 380.495 688.741 380.391 689.257 380.391C689.767 380.391 690.215 380.49 690.6 380.688C690.986 380.885 691.314 381.169 691.585 381.539C691.856 381.904 692.072 382.341 692.233 382.852C692.395 383.357 692.509 383.919 692.577 384.539V385.062C692.509 385.667 692.395 386.219 692.233 386.719C692.072 387.219 691.856 387.651 691.585 388.016C691.314 388.38 690.983 388.661 690.593 388.859C690.207 389.057 689.757 389.156 689.241 389.156C688.731 389.156 688.27 389.049 687.858 388.836C687.452 388.622 687.106 388.323 686.819 387.938C686.533 387.552 686.314 387.099 686.163 386.578C686.012 386.052 685.936 385.482 685.936 384.867ZM687.819 384.703V384.867C687.819 385.253 687.853 385.612 687.921 385.945C687.994 386.279 688.106 386.573 688.257 386.828C688.408 387.078 688.603 387.276 688.843 387.422C689.087 387.562 689.379 387.633 689.718 387.633C690.145 387.633 690.496 387.539 690.772 387.352C691.048 387.164 691.264 386.911 691.421 386.594C691.582 386.271 691.691 385.911 691.749 385.516V384.102C691.718 383.794 691.652 383.508 691.553 383.242C691.46 382.977 691.332 382.745 691.171 382.547C691.009 382.344 690.809 382.188 690.569 382.078C690.335 381.964 690.056 381.906 689.733 381.906C689.389 381.906 689.098 381.979 688.858 382.125C688.619 382.271 688.421 382.471 688.264 382.727C688.113 382.982 688.001 383.279 687.928 383.617C687.856 383.956 687.819 384.318 687.819 384.703ZM699.662 389.156C699.037 389.156 698.472 389.055 697.967 388.852C697.467 388.643 697.04 388.354 696.686 387.984C696.337 387.615 696.068 387.18 695.881 386.68C695.693 386.18 695.6 385.641 695.6 385.062V384.75C695.6 384.089 695.696 383.49 695.889 382.953C696.081 382.417 696.35 381.958 696.693 381.578C697.037 381.193 697.443 380.898 697.912 380.695C698.381 380.492 698.889 380.391 699.436 380.391C700.04 380.391 700.568 380.492 701.022 380.695C701.475 380.898 701.85 381.185 702.147 381.555C702.449 381.919 702.673 382.354 702.818 382.859C702.969 383.365 703.045 383.922 703.045 384.531V385.336H696.514V383.984H701.186V383.836C701.175 383.497 701.108 383.18 700.983 382.883C700.863 382.586 700.678 382.346 700.428 382.164C700.178 381.982 699.844 381.891 699.428 381.891C699.115 381.891 698.837 381.958 698.592 382.094C698.352 382.224 698.152 382.414 697.99 382.664C697.829 382.914 697.704 383.216 697.615 383.57C697.532 383.919 697.49 384.312 697.49 384.75V385.062C697.49 385.432 697.54 385.776 697.639 386.094C697.743 386.406 697.894 386.68 698.092 386.914C698.29 387.148 698.529 387.333 698.811 387.469C699.092 387.599 699.412 387.664 699.772 387.664C700.225 387.664 700.628 387.573 700.983 387.391C701.337 387.208 701.644 386.951 701.904 386.617L702.897 387.578C702.714 387.844 702.477 388.099 702.186 388.344C701.894 388.583 701.537 388.779 701.115 388.93C700.699 389.081 700.214 389.156 699.662 389.156ZM707.044 382.156V389H705.162V380.547H706.958L707.044 382.156ZM709.63 380.492L709.615 382.242C709.5 382.221 709.375 382.206 709.24 382.195C709.109 382.185 708.979 382.18 708.849 382.18C708.526 382.18 708.242 382.227 707.998 382.32C707.753 382.409 707.547 382.539 707.38 382.711C707.219 382.878 707.094 383.081 707.005 383.32C706.917 383.56 706.865 383.828 706.849 384.125L706.419 384.156C706.419 383.625 706.471 383.133 706.576 382.68C706.68 382.227 706.836 381.828 707.044 381.484C707.258 381.141 707.524 380.872 707.841 380.68C708.164 380.487 708.537 380.391 708.958 380.391C709.073 380.391 709.195 380.401 709.326 380.422C709.461 380.443 709.563 380.466 709.63 380.492ZM722.246 386.07C722.246 385.836 722.21 385.628 722.137 385.445C722.069 385.263 721.947 385.096 721.77 384.945C721.593 384.794 721.343 384.648 721.02 384.508C720.702 384.362 720.296 384.214 719.801 384.062C719.259 383.896 718.759 383.711 718.301 383.508C717.848 383.299 717.452 383.06 717.113 382.789C716.775 382.513 716.512 382.198 716.324 381.844C716.137 381.484 716.043 381.07 716.043 380.602C716.043 380.138 716.139 379.716 716.332 379.336C716.53 378.956 716.809 378.628 717.168 378.352C717.533 378.07 717.962 377.854 718.457 377.703C718.952 377.547 719.499 377.469 720.098 377.469C720.942 377.469 721.668 377.625 722.278 377.938C722.892 378.25 723.363 378.669 723.692 379.195C724.025 379.721 724.192 380.302 724.192 380.938H722.246C722.246 380.562 722.166 380.232 722.004 379.945C721.848 379.654 721.608 379.424 721.285 379.258C720.968 379.091 720.564 379.008 720.074 379.008C719.611 379.008 719.225 379.078 718.918 379.219C718.611 379.359 718.382 379.549 718.231 379.789C718.08 380.029 718.004 380.299 718.004 380.602C718.004 380.815 718.054 381.01 718.153 381.188C718.251 381.359 718.403 381.521 718.606 381.672C718.809 381.818 719.064 381.956 719.371 382.086C719.679 382.216 720.041 382.341 720.457 382.461C721.087 382.648 721.637 382.857 722.106 383.086C722.574 383.31 722.965 383.565 723.278 383.852C723.59 384.138 723.824 384.464 723.981 384.828C724.137 385.188 724.215 385.596 724.215 386.055C724.215 386.534 724.119 386.966 723.926 387.352C723.733 387.732 723.457 388.057 723.098 388.328C722.744 388.594 722.317 388.799 721.817 388.945C721.322 389.086 720.77 389.156 720.16 389.156C719.613 389.156 719.074 389.083 718.543 388.938C718.017 388.792 717.538 388.57 717.106 388.273C716.673 387.971 716.33 387.596 716.074 387.148C715.819 386.695 715.692 386.167 715.692 385.562H717.653C717.653 385.932 717.715 386.247 717.84 386.508C717.97 386.768 718.15 386.982 718.379 387.148C718.608 387.31 718.874 387.43 719.176 387.508C719.483 387.586 719.811 387.625 720.16 387.625C720.619 387.625 721.001 387.56 721.309 387.43C721.621 387.299 721.856 387.117 722.012 386.883C722.168 386.648 722.246 386.378 722.246 386.07ZM730.128 389.156C729.503 389.156 728.938 389.055 728.433 388.852C727.933 388.643 727.506 388.354 727.152 387.984C726.803 387.615 726.535 387.18 726.347 386.68C726.16 386.18 726.066 385.641 726.066 385.062V384.75C726.066 384.089 726.162 383.49 726.355 382.953C726.548 382.417 726.816 381.958 727.16 381.578C727.503 381.193 727.91 380.898 728.378 380.695C728.847 380.492 729.355 380.391 729.902 380.391C730.506 380.391 731.035 380.492 731.488 380.695C731.941 380.898 732.316 381.185 732.613 381.555C732.915 381.919 733.139 382.354 733.285 382.859C733.436 383.365 733.511 383.922 733.511 384.531V385.336H726.98V383.984H731.652V383.836C731.641 383.497 731.574 383.18 731.449 382.883C731.329 382.586 731.144 382.346 730.894 382.164C730.644 381.982 730.311 381.891 729.894 381.891C729.582 381.891 729.303 381.958 729.058 382.094C728.819 382.224 728.618 382.414 728.457 382.664C728.295 382.914 728.17 383.216 728.082 383.57C727.998 383.919 727.957 384.312 727.957 384.75V385.062C727.957 385.432 728.006 385.776 728.105 386.094C728.209 386.406 728.36 386.68 728.558 386.914C728.756 387.148 728.996 387.333 729.277 387.469C729.558 387.599 729.878 387.664 730.238 387.664C730.691 387.664 731.095 387.573 731.449 387.391C731.803 387.208 732.11 386.951 732.371 386.617L733.363 387.578C733.181 387.844 732.944 388.099 732.652 388.344C732.36 388.583 732.003 388.779 731.582 388.93C731.165 389.081 730.681 389.156 730.128 389.156ZM737.511 382.156V389H735.628V380.547H737.425L737.511 382.156ZM740.097 380.492L740.081 382.242C739.966 382.221 739.841 382.206 739.706 382.195C739.576 382.185 739.446 382.18 739.315 382.18C738.992 382.18 738.709 382.227 738.464 382.32C738.219 382.409 738.013 382.539 737.847 382.711C737.685 382.878 737.56 383.081 737.472 383.32C737.383 383.56 737.331 383.828 737.315 384.125L736.886 384.156C736.886 383.625 736.938 383.133 737.042 382.68C737.146 382.227 737.302 381.828 737.511 381.484C737.724 381.141 737.99 380.872 738.308 380.68C738.63 380.487 739.003 380.391 739.425 380.391C739.539 380.391 739.662 380.401 739.792 380.422C739.927 380.443 740.029 380.466 740.097 380.492ZM744.807 387.508L746.877 380.547H748.83L745.893 389H744.674L744.807 387.508ZM743.221 380.547L745.33 387.539L745.432 389H744.213L741.26 380.547H743.221ZM752.65 380.547V389H750.759V380.547H752.65ZM750.634 378.328C750.634 378.042 750.728 377.805 750.916 377.617C751.108 377.424 751.374 377.328 751.713 377.328C752.046 377.328 752.309 377.424 752.502 377.617C752.694 377.805 752.791 378.042 752.791 378.328C752.791 378.609 752.694 378.844 752.502 379.031C752.309 379.219 752.046 379.312 751.713 379.312C751.374 379.312 751.108 379.219 750.916 379.031C750.728 378.844 750.634 378.609 750.634 378.328ZM758.806 387.656C759.113 387.656 759.389 387.596 759.634 387.477C759.884 387.352 760.084 387.18 760.235 386.961C760.392 386.742 760.478 386.49 760.493 386.203H762.267C762.256 386.75 762.095 387.247 761.782 387.695C761.47 388.143 761.056 388.5 760.54 388.766C760.024 389.026 759.454 389.156 758.829 389.156C758.183 389.156 757.621 389.047 757.142 388.828C756.662 388.604 756.264 388.297 755.946 387.906C755.629 387.516 755.389 387.065 755.228 386.555C755.071 386.044 754.993 385.497 754.993 384.914V384.641C754.993 384.057 755.071 383.51 755.228 383C755.389 382.484 755.629 382.031 755.946 381.641C756.264 381.25 756.662 380.945 757.142 380.727C757.621 380.503 758.181 380.391 758.821 380.391C759.498 380.391 760.092 380.526 760.603 380.797C761.113 381.062 761.514 381.435 761.806 381.914C762.103 382.388 762.256 382.94 762.267 383.57H760.493C760.478 383.258 760.399 382.977 760.259 382.727C760.123 382.471 759.931 382.268 759.681 382.117C759.436 381.966 759.142 381.891 758.798 381.891C758.418 381.891 758.103 381.969 757.853 382.125C757.603 382.276 757.407 382.484 757.267 382.75C757.126 383.01 757.024 383.305 756.962 383.633C756.905 383.956 756.876 384.292 756.876 384.641V384.914C756.876 385.263 756.905 385.602 756.962 385.93C757.019 386.258 757.118 386.552 757.259 386.812C757.405 387.068 757.603 387.273 757.853 387.43C758.103 387.581 758.42 387.656 758.806 387.656ZM768.078 389.156C767.453 389.156 766.888 389.055 766.383 388.852C765.883 388.643 765.456 388.354 765.102 387.984C764.753 387.615 764.485 387.18 764.297 386.68C764.11 386.18 764.016 385.641 764.016 385.062V384.75C764.016 384.089 764.112 383.49 764.305 382.953C764.498 382.417 764.766 381.958 765.11 381.578C765.453 381.193 765.86 380.898 766.328 380.695C766.797 380.492 767.305 380.391 767.852 380.391C768.456 380.391 768.985 380.492 769.438 380.695C769.891 380.898 770.266 381.185 770.563 381.555C770.865 381.919 771.089 382.354 771.235 382.859C771.386 383.365 771.461 383.922 771.461 384.531V385.336H764.93V383.984H769.602V383.836C769.591 383.497 769.524 383.18 769.399 382.883C769.279 382.586 769.094 382.346 768.844 382.164C768.594 381.982 768.261 381.891 767.844 381.891C767.532 381.891 767.253 381.958 767.008 382.094C766.769 382.224 766.568 382.414 766.407 382.664C766.245 382.914 766.12 383.216 766.032 383.57C765.948 383.919 765.907 384.312 765.907 384.75V385.062C765.907 385.432 765.956 385.776 766.055 386.094C766.159 386.406 766.31 386.68 766.508 386.914C766.706 387.148 766.946 387.333 767.227 387.469C767.508 387.599 767.828 387.664 768.188 387.664C768.641 387.664 769.045 387.573 769.399 387.391C769.753 387.208 770.06 386.951 770.321 386.617L771.313 387.578C771.131 387.844 770.894 388.099 770.602 388.344C770.31 388.583 769.953 388.779 769.532 388.93C769.115 389.081 768.631 389.156 768.078 389.156Z" fill="white"/>
</g>
<defs>
<filter id="filter0_d_296605_13" x="631.5" y="356" width="177" height="64" filterUnits="userSpaceOnUse" color-interpolation-filters="sRGB">
<feFlood flood-opacity="0" result="BackgroundImageFix"/>
<feColorMatrix in="SourceAlpha" type="matrix" values="0 0 0 0 0 0 0 0 0 0 0 0 0 0 0 0 0 0 127 0" result="hardAlpha"/>
<feOffset dy="4"/>
<feGaussianBlur stdDeviation="2"/>
<feComposite in2="hardAlpha" operator="out"/>
<feColorMatrix type="matrix" values="0 0 0 0 0 0 0 0 0 0 0 0 0 0 0 0 0 0 0.15 0"/>
<feBlend mode="normal" in2="BackgroundImageFix" result="effect1_dropShadow_296605_13"/>
<feBlend mode="normal" in="SourceGraphic" in2="effect1_dropShadow_296605_13" result="shape"/>
</filter>
</defs>
</svg>
